<svg id="visual" viewBox="0 0 960 300" width="960" height="300" xmlns="http://www.w3.org/2000/svg" xmlns:xlink="http://www.w3.org/1999/xlink" version="1.1"><rect x="0" y="0" width="960" height="300" fill="#FFFFFF"></rect><path d="M0 101L137 141L274 135L411 110L549 145L686 158L823 154L960 157L960 301L823 301L686 301L549 301L411 301L274 301L137 301L0 301Z" fill="#0066ff"></path><path d="M0 173L137 150L274 166L411 139L549 175L686 126L823 153L960 153L960 301L823 301L686 301L549 301L411 301L274 301L137 301L0 301Z" fill="#0074ff"></path><path d="M0 196L137 198L274 158L411 186L549 177L686 169L823 196L960 189L960 301L823 301L686 301L549 301L411 301L274 301L137 301L0 301Z" fill="#0080ff"></path><path d="M0 180L137 185L274 225L411 200L549 203L686 176L823 188L960 181L960 301L823 301L686 301L549 301L411 301L274 301L137 301L0 301Z" fill="#008cff"></path><path d="M0 217L137 235L274 204L411 235L549 240L686 231L823 206L960 216L960 301L823 301L686 301L549 301L411 301L274 301L137 301L0 301Z" fill="#1e97fd"></path><path d="M0 242L137 244L274 235L411 247L549 255L686 261L823 260L960 259L960 301L823 301L686 301L549 301L411 301L274 301L137 301L0 301Z" fill="#37a2fb"></path><path d="M0 279L137 263L274 255L411 282L549 262L686 274L823 281L960 277L960 301L823 301L686 301L549 301L411 301L274 301L137 301L0 301Z" fill="#4facf7"></path></svg>