<svg id="visual" viewBox="0 0 960 300" width="960" height="300" xmlns="http://www.w3.org/2000/svg" xmlns:xlink="http://www.w3.org/1999/xlink" version="1.1"><rect x="0" y="0" width="960" height="300" fill="#FFFFFF"></rect><path d="M0 167L22.8 166.8C45.7 166.7 91.3 166.3 137 160.8C182.7 155.3 228.3 144.7 274 148.5C319.7 152.3 365.3 170.7 411.2 176.7C457 182.7 503 176.3 548.8 170.8C594.7 165.3 640.3 160.7 686 161.3C731.7 162 777.3 168 823 167.2C868.7 166.3 914.3 158.7 937.2 154.8L960 151L960 0L937.2 0C914.3 0 868.7 0 823 0C777.3 0 731.7 0 686 0C640.3 0 594.7 0 548.8 0C503 0 457 0 411.2 0C365.3 0 319.7 0 274 0C228.3 0 182.7 0 137 0C91.3 0 45.7 0 22.8 0L0 0Z" fill="#fa7268"></path><path d="M0 145L22.8 144.3C45.7 143.7 91.3 142.3 137 134.8C182.7 127.3 228.3 113.7 274 111C319.7 108.3 365.3 116.7 411.2 127.2C457 137.7 503 150.3 548.8 153.7C594.7 157 640.3 151 686 149.3C731.7 147.7 777.3 150.3 823 149.7C868.7 149 914.3 145 937.2 143L960 141L960 0L937.2 0C914.3 0 868.7 0 823 0C777.3 0 731.7 0 686 0C640.3 0 594.7 0 548.8 0C503 0 457 0 411.2 0C365.3 0 319.7 0 274 0C228.3 0 182.7 0 137 0C91.3 0 45.7 0 22.8 0L0 0Z" fill="#eb5967"></path><path d="M0 109L22.8 104.8C45.7 100.7 91.3 92.3 137 93.8C182.7 95.3 228.3 106.7 274 112.5C319.7 118.3 365.3 118.7 411.2 117.7C457 116.7 503 114.3 548.8 111.5C594.7 108.7 640.3 105.3 686 99C731.7 92.7 777.3 83.3 823 79.7C868.7 76 914.3 78 937.2 79L960 80L960 0L937.2 0C914.3 0 868.7 0 823 0C777.3 0 731.7 0 686 0C640.3 0 594.7 0 548.8 0C503 0 457 0 411.2 0C365.3 0 319.7 0 274 0C228.3 0 182.7 0 137 0C91.3 0 45.7 0 22.8 0L0 0Z" fill="#da3f67"></path><path d="M0 51L22.8 53.5C45.7 56 91.3 61 137 63.5C182.7 66 228.3 66 274 65.5C319.7 65 365.3 64 411.2 61C457 58 503 53 548.8 54C594.7 55 640.3 62 686 65.5C731.7 69 777.3 69 823 67.2C868.7 65.3 914.3 61.7 937.2 59.8L960 58L960 0L937.2 0C914.3 0 868.7 0 823 0C777.3 0 731.7 0 686 0C640.3 0 594.7 0 548.8 0C503 0 457 0 411.2 0C365.3 0 319.7 0 274 0C228.3 0 182.7 0 137 0C91.3 0 45.7 0 22.8 0L0 0Z" fill="#c62368"></path></svg>